<svg width="48" height="38" viewBox="0 0 48 38" fill="none" xmlns="http://www.w3.org/2000/svg">
<path d="M2.86067 0.125079C2.3633 0.125079 1.88631 0.322624 1.53462 0.674254C1.18293 1.02588 0.985352 1.5028 0.985352 2.00008C0.985352 2.49736 1.18293 2.97427 1.53462 3.3259C1.88631 3.67753 2.3633 3.87508 2.86067 3.87508H7.02387L11.9447 23.5626C12.3629 25.2313 13.8575 26.3751 15.5772 26.3751H38.9624C40.6558 26.3751 42.0942 25.2501 42.5386 23.6188L47.3995 5.75008H43.4725L38.9605 22.6251H15.5753L10.6564 2.93758C10.4532 2.12988 9.98477 1.41373 9.32616 0.903792C8.66755 0.393859 7.85685 0.119651 7.02387 0.125079H2.86067ZM36.6164 26.3751C33.5315 26.3751 30.9904 28.9157 30.9904 32.0001C30.9904 35.0845 33.5315 37.6251 36.6164 37.6251C39.7013 37.6251 42.2423 35.0845 42.2423 32.0001C42.2423 28.9157 39.7013 26.3751 36.6164 26.3751ZM19.7385 26.3751C16.6536 26.3751 14.1126 28.9157 14.1126 32.0001C14.1126 35.0845 16.6536 37.6251 19.7385 37.6251C22.8234 37.6251 25.3645 35.0845 25.3645 32.0001C25.3645 28.9157 22.8234 26.3751 19.7385 26.3751ZM25.3645 0.125079V9.50008H19.7385L27.2398 17.0001L34.7411 9.50008H29.1151V0.125079H25.3645ZM19.7385 30.1251C20.7962 30.1251 21.6138 30.9426 21.6138 32.0001C21.6138 33.0576 20.7962 33.8751 19.7385 33.8751C18.6808 33.8751 17.8632 33.0576 17.8632 32.0001C17.8632 30.9426 18.6808 30.1251 19.7385 30.1251ZM36.6164 30.1251C37.6741 30.1251 38.4917 30.9426 38.4917 32.0001C38.4917 33.0576 37.6741 33.8751 36.6164 33.8751C35.5587 33.8751 34.7411 33.0576 34.7411 32.0001C34.7411 30.9426 35.5587 30.1251 36.6164 30.1251Z" fill="white"/>
</svg>
