<svg width="50" height="49" viewBox="0 0 50 49" fill="none" xmlns="http://www.w3.org/2000/svg">
<path d="M46.3885 38.2541L38.6285 30.4941L32.6597 28.0281C34.6471 25.2018 35.7118 21.8301 35.708 18.375C35.708 9.0873 28.152 1.53125 18.8643 1.53125C9.57656 1.53125 2.02051 9.0873 2.02051 18.375C2.02051 27.6627 9.57656 35.2188 18.8643 35.2188C22.3494 35.2227 25.749 34.1396 28.5895 32.1202L31.0491 38.0729L38.8088 45.8333C39.3064 46.331 39.8973 46.7258 40.5475 46.9951C41.1977 47.2645 41.8946 47.4031 42.5985 47.4032C43.3023 47.4032 43.9992 47.2646 44.6495 46.9953C45.2997 46.7259 45.8905 46.3312 46.3882 45.8335C46.8859 45.3359 47.2807 44.745 47.5501 44.0948C47.8194 43.4446 47.9581 42.7477 47.9581 42.0438C47.9581 41.34 47.8195 40.6431 47.5502 39.9928C47.2809 39.3426 46.8861 38.7518 46.3885 38.2541ZM5.08301 18.375C5.08301 10.7762 11.2654 4.59375 18.8643 4.59375C26.4631 4.59375 32.6455 10.7762 32.6455 18.375C32.6455 25.9738 26.4631 32.1562 18.8643 32.1562C11.2654 32.1562 5.08301 25.9738 5.08301 18.375ZM44.2228 43.6678C43.7917 44.0979 43.2076 44.3395 42.5986 44.3395C41.9897 44.3395 41.4055 44.0979 40.9745 43.6678L33.6463 36.3396L31.3595 30.8046L36.8947 33.0914L44.223 40.4195C44.6531 40.8507 44.8946 41.4348 44.8945 42.0437C44.8945 42.6527 44.6529 43.2367 44.2228 43.6678Z" fill="white"/>
</svg>
