<svg width="50" height="49" viewBox="0 0 50 49" fill="none" xmlns="http://www.w3.org/2000/svg">
<g clip-path="url(#clip0_463_4)">
<path d="M42.7765 -0.118652C42.0698 -0.118652 41.397 0.201732 40.8316 0.767117L39.4785 2.06185L47.4278 10.0112L48.7244 8.658C49.8552 7.52723 49.8552 5.84239 48.7244 4.71162L44.778 0.765232C44.2126 0.199848 43.4833 -0.118652 42.7765 -0.118652ZM38.1819 3.18131L36.1201 4.89066L44.6009 13.3714L46.4855 11.4868L38.1819 3.18131ZM35.0006 6.24381L17.9825 23.0885C17.8964 23.1596 17.8169 23.2385 17.7451 23.3241L17.6282 23.3825C17.4227 23.6181 17.2806 23.9022 17.2155 24.208L14.9182 32.276C14.8197 32.5953 14.8102 32.9355 14.8906 33.2598C14.9711 33.5842 15.1385 33.8804 15.3748 34.1167C15.6111 34.353 15.9073 34.5204 16.2317 34.6009C16.556 34.6813 16.8962 34.6718 17.2155 34.5733L25.2836 32.276C25.5514 32.2125 25.8016 32.0896 26.0156 31.9163C26.2296 31.7431 26.4019 31.524 26.5199 31.2753L43.2477 14.7246L40.0665 11.3078V11.4849L37.8275 9.246H38.0047L35.0006 6.24381ZM2.02174 7.53854C1.58513 7.62158 1.19192 7.85625 0.911555 8.2011C0.631193 8.54595 0.481724 8.97879 0.48955 9.42316V47.1155C0.48955 47.6153 0.688107 48.0947 1.04154 48.4481C1.39498 48.8015 1.87433 49.0001 2.37417 49.0001H40.0665C40.5663 49.0001 41.0457 48.8015 41.3991 48.4481C41.7525 48.0947 41.9511 47.6153 41.9511 47.1155V26.3847C41.9511 25.8849 41.7525 25.4055 41.3991 25.0521C41.0457 24.6986 40.5663 24.5001 40.0665 24.5001C39.5666 24.5001 39.0873 24.6986 38.7338 25.0521C38.3804 25.4055 38.1819 25.8849 38.1819 26.3847V45.2308H4.25878V11.3078H23.1049C23.6048 11.3078 24.0841 11.1092 24.4376 10.7558C24.791 10.4023 24.9895 9.92299 24.9895 9.42316C24.9895 8.92332 24.791 8.44396 24.4376 8.09053C24.0841 7.7371 23.6048 7.53854 23.1049 7.53854H2.37417C2.31515 7.53576 2.25603 7.53576 2.19701 7.53854C2.13799 7.53576 2.07888 7.53576 2.01986 7.53854H2.02174ZM20.5155 26.0323L23.1068 26.2075L23.284 29.0345L20.6926 29.7996L19.6919 28.8008L20.5155 26.0323Z" fill="white"/>
</g>
<defs>
<clipPath id="clip0_463_4">
<rect width="49" height="49" fill="white" transform="translate(0.489258)"/>
</clipPath>
</defs>
</svg>
