<svg width="51" height="50" viewBox="0 0 51 50" fill="none" xmlns="http://www.w3.org/2000/svg">
<g clip-path="url(#clip0_457_144)">
<path d="M21.3223 11.1111H33.8223V13.8889H21.3223V11.1111Z" fill="white"/>
<path d="M21.3223 16.6667H33.8223V19.4445H21.3223V16.6667Z" fill="white"/>
<path d="M21.3223 22.2222H33.8223V24.9999H21.3223V22.2222Z" fill="white"/>
<path d="M21.3223 27.7778H33.8223V30.5556H21.3223V27.7778Z" fill="white"/>
<path d="M21.3223 33.3333H33.8223V36.111H21.3223V33.3333Z" fill="white"/>
<path d="M15.7666 11.1111H18.5444V13.8889H15.7666V11.1111Z" fill="white"/>
<path d="M15.7666 16.6667H18.5444V19.4445H15.7666V16.6667Z" fill="white"/>
<path d="M15.7666 22.2222H18.5444V24.9999H15.7666V22.2222Z" fill="white"/>
<path d="M15.7666 27.7778H18.5444V30.5556H15.7666V27.7778Z" fill="white"/>
<path d="M15.7666 33.3333H18.5444V36.111H15.7666V33.3333Z" fill="white"/>
<path d="M39.3778 2.77783H11.6C10.8633 2.77783 10.1568 3.07049 9.63586 3.59142C9.11492 4.11236 8.82227 4.8189 8.82227 5.55561V44.4445C8.82227 45.1812 9.11492 45.8877 9.63586 46.4087C10.1568 46.9296 10.8633 47.2223 11.6 47.2223H39.3778C40.1145 47.2223 40.8211 46.9296 41.342 46.4087C41.8629 45.8877 42.1556 45.1812 42.1556 44.4445V5.55561C42.1556 4.8189 41.8629 4.11236 41.342 3.59142C40.8211 3.07049 40.1145 2.77783 39.3778 2.77783ZM39.3778 44.4445H11.6V5.55561H39.3778V44.4445Z" fill="white"/>
</g>
<defs>
<clipPath id="clip0_457_144">
<rect width="50" height="50" fill="white" transform="translate(0.489258)"/>
</clipPath>
</defs>
</svg>
