<svg width="50" height="49" viewBox="0 0 50 49" fill="none" xmlns="http://www.w3.org/2000/svg">
<g clip-path="url(#clip0_469_564)">
<path fill-rule="evenodd" clip-rule="evenodd" d="M39.5201 6.53333H44.4209C45.7207 6.53333 46.9673 7.04958 47.8863 7.96851C48.8054 8.88744 49.3218 10.1338 49.3218 11.4333V44.1C49.3218 45.3996 48.8054 46.6459 47.8863 47.5648C46.9673 48.4838 45.7207 49 44.4209 49H5.21431C3.91452 49 2.66798 48.4838 1.7489 47.5648C0.829812 46.6459 0.313477 45.3996 0.313477 44.1L0.313477 11.4333C0.313477 10.1338 0.829812 8.88744 1.7489 7.96851C2.66798 7.04958 3.91452 6.53333 5.21431 6.53333H10.1151V0H13.3824V6.53333H36.2529V0H39.5201V6.53333ZM19.9168 26.1333H10.1151V22.8667H19.9168V26.1333ZM39.5201 22.8667H29.7185V26.1333H39.5201V22.8667ZM19.9168 35.9333H10.1151V32.6667H19.9168V35.9333ZM29.7185 35.9333H39.5201V32.6667H29.7185V35.9333Z" fill="white"/>
</g>
<defs>
<clipPath id="clip0_469_564">
<rect width="49.0083" height="49" fill="white" transform="translate(0.313477)"/>
</clipPath>
</defs>
</svg>
