<svg width="50" height="48" viewBox="0 0 50 48" fill="none" xmlns="http://www.w3.org/2000/svg">
<path d="M49.605 44.8034C45.9754 38.5294 40.382 34.0307 33.8543 31.898C37.0832 29.9762 39.5918 27.0478 40.9949 23.5625C42.3981 20.0772 42.6182 16.2277 41.6214 12.6053C40.6246 8.9828 38.466 5.78765 35.4772 3.51047C32.4884 1.23329 28.8346 0 25.0769 0C21.3193 0 17.6655 1.23329 14.6766 3.51047C11.6878 5.78765 9.52931 8.9828 8.53252 12.6053C7.53572 16.2277 7.7558 20.0772 9.15894 23.5625C10.5621 27.0478 13.0707 29.9762 16.2996 31.898C9.77193 34.0283 4.17852 38.527 0.548884 44.8034C0.415779 45.0204 0.327491 45.2618 0.28923 45.5135C0.250969 45.7651 0.263509 46.0219 0.326111 46.2687C0.388714 46.5154 0.500109 46.7471 0.653726 46.9501C0.807343 47.1531 1.00007 47.3233 1.22053 47.4506C1.441 47.5779 1.68474 47.6598 1.93736 47.6914C2.18999 47.7231 2.4464 47.7038 2.69145 47.6347C2.9365 47.5656 3.16523 47.4482 3.36415 47.2893C3.56307 47.1304 3.72814 46.9333 3.84964 46.7096C8.33962 38.9512 16.2757 34.319 25.0769 34.319C33.8782 34.319 41.8143 38.9512 46.3042 46.7096C46.4257 46.9333 46.5908 47.1304 46.7897 47.2893C46.9887 47.4482 47.2174 47.5656 47.4624 47.6347C47.7075 47.7038 47.9639 47.7231 48.2165 47.6914C48.4691 47.6598 48.7129 47.5779 48.9333 47.4506C49.1538 47.3233 49.3465 47.1531 49.5002 46.9501C49.6538 46.7471 49.7652 46.5154 49.8278 46.2687C49.8904 46.0219 49.9029 45.7651 49.8646 45.5135C49.8264 45.2618 49.7381 45.0204 49.605 44.8034ZM11.7309 17.1627C11.7309 14.5236 12.5137 11.9437 13.9801 9.74934C15.4466 7.55497 17.531 5.84467 19.9696 4.83471C22.4083 3.82476 25.0917 3.56051 27.6806 4.07538C30.2695 4.59025 32.6475 5.86112 34.514 7.72728C36.3805 9.59343 37.6516 11.9711 38.1665 14.5595C38.6815 17.1479 38.4172 19.8309 37.407 22.2692C36.3969 24.7074 34.6863 26.7914 32.4916 28.2577C30.2968 29.7239 27.7165 30.5065 25.0769 30.5065C21.5385 30.5027 18.1461 29.0956 15.6441 26.594C13.142 24.0924 11.7347 20.7006 11.7309 17.1627Z" fill="white"/>
</svg>
