<svg width="27" height="27" viewBox="0 0 27 27" fill="none" xmlns="http://www.w3.org/2000/svg">
<path d="M17.1985 6.57911e-07C15.4812 -2.44584e-05 14.0968 -4.95148e-05 13.0081 0.146328C11.8778 0.298307 10.926 0.623424 10.1701 1.37932C9.51089 2.03854 9.1778 2.84864 9.00295 3.80053C8.83306 4.72552 8.80056 5.85749 8.79298 7.21569C8.7901 7.73585 9.20942 8.15988 9.72959 8.16278C10.2498 8.16568 10.6738 7.74634 10.6767 7.22618C10.6843 5.85295 10.72 4.87959 10.8557 4.14086C10.9864 3.42905 11.1964 3.01704 11.5021 2.71132C11.8497 2.36376 12.3377 2.13714 13.259 2.01326C14.2077 1.88572 15.4649 1.88372 17.2674 1.88372H18.5232C20.3258 1.88372 21.583 1.88572 22.5316 2.01326C23.4531 2.13714 23.941 2.36376 24.2886 2.71132C24.6362 3.05887 24.8628 3.54686 24.9867 4.46834C25.1142 5.41692 25.1162 6.67414 25.1162 8.47674V18.5233C25.1162 20.3259 25.1142 21.583 24.9867 22.5317C24.8628 23.4532 24.6362 23.9411 24.2886 24.2887C23.941 24.6363 23.4531 24.8629 22.5316 24.9868C21.583 25.1143 20.3258 25.1163 18.5232 25.1163H17.2674C15.4649 25.1163 14.2077 25.1143 13.259 24.9868C12.3377 24.8629 11.8497 24.6363 11.5021 24.2887C11.1964 23.9829 10.9864 23.571 10.8557 22.8592C10.72 22.1204 10.6843 21.147 10.6767 19.7738C10.6738 19.2536 10.2498 18.8343 9.72959 18.8372C9.20942 18.8401 8.7901 19.2642 8.79298 19.7843C8.80056 21.1425 8.83306 22.2745 9.00295 23.1994C9.1778 24.1513 9.51089 24.9614 10.1701 25.6207C10.926 26.3766 11.8778 26.7017 13.0081 26.8537C14.0968 27 15.4812 27 17.1985 27H18.5922C20.3096 27 21.6939 27 22.7827 26.8537C23.913 26.7017 24.8647 26.3766 25.6207 25.6207C26.3765 24.8647 26.7017 23.9131 26.8536 22.7827C27 21.6939 26.9999 20.3097 26.9999 18.5922V8.40784C26.9999 6.6904 27 5.30609 26.8536 4.21734C26.7017 3.08697 26.3765 2.13522 25.6207 1.37932C24.8647 0.623424 23.913 0.298307 22.7827 0.146328C21.6939 -4.95148e-05 20.3096 -2.44584e-05 18.5922 6.57911e-07H17.1985Z" fill="#ED2B2A"/>
<path d="M17.2673 12.5582C17.7874 12.5582 18.2091 12.9799 18.2091 13.5001C18.2091 14.0202 17.7874 14.442 17.2673 14.442H3.48792L5.9501 16.5525C6.34505 16.8909 6.39079 17.4855 6.05226 17.8805C5.71375 18.2755 5.11915 18.3212 4.72422 17.9826L0.328907 14.2152C0.120143 14.0363 0 13.775 0 13.5001C0 13.2252 0.120143 12.9639 0.328907 12.785L4.72422 9.01754C5.11915 8.67901 5.71375 8.72475 6.05226 9.1197C6.39079 9.51464 6.34505 10.1092 5.9501 10.4478L3.48792 12.5582H17.2673Z" fill="#ED2B2A"/>
</svg>
