<svg width="44" height="39" viewBox="0 0 44 39" fill="none" xmlns="http://www.w3.org/2000/svg">
<path d="M5.39062 20.5208V33.7916C5.39062 34.6038 5.71333 35.3828 6.28776 35.9571C6.86219 36.5314 7.64128 36.8541 8.45364 36.8541H34.9998C35.8122 36.8541 36.5913 36.5314 37.1657 35.9571C37.7401 35.3828 38.0628 34.6038 38.0628 33.7916V20.5208" stroke="white" stroke-width="4" stroke-linecap="round" stroke-linejoin="round"/>
<path d="M2.32715 10.3124C2.32715 9.77093 2.54229 9.25163 2.92524 8.86874C3.30819 8.48586 3.82759 8.27075 4.36916 8.27075H39.0834C39.6249 8.27075 40.1443 8.48586 40.5273 8.86874C40.9102 9.25163 41.1254 9.77093 41.1254 10.3124V18.4791C41.1254 19.0206 40.9102 19.5399 40.5273 19.9228C40.1443 20.3056 39.6249 20.5208 39.0834 20.5208H4.36916C3.82759 20.5208 3.30819 20.3056 2.92524 19.9228C2.54229 19.5399 2.32715 19.0206 2.32715 18.4791V10.3124Z" stroke="white" stroke-width="4" stroke-linejoin="round"/>
<path d="M28.8732 8.27075V4.18742C28.8732 3.64593 28.6581 3.12663 28.2751 2.74374C27.8922 2.36086 27.3728 2.14575 26.8312 2.14575H16.6211C16.0796 2.14575 15.5602 2.36086 15.1772 2.74374C14.7943 3.12663 14.5791 3.64593 14.5791 4.18742V8.27075M12.5371 18.4791V24.6041M30.9152 18.4791V24.6041" stroke="white" stroke-width="4" stroke-linecap="round" stroke-linejoin="round"/>
</svg>
