<svg width="29" height="30" viewBox="0 0 29 30" fill="none" xmlns="http://www.w3.org/2000/svg">
<path d="M22.5946 12.8785V18.2839C22.5946 18.6353 22.5811 18.9731 22.5406 19.2974C22.2298 22.9461 20.0811 24.7569 16.1217 24.7569H15.5811C15.2433 24.7569 14.9189 24.9191 14.7162 25.1893L13.0946 27.3515C12.3784 28.311 11.2162 28.311 10.5 27.3515L8.87838 25.1893C8.7027 24.9596 8.31083 24.7569 8.01353 24.7569H7.473C3.16218 24.7569 1 23.6893 1 18.2839V12.8785C1 8.91905 2.82434 6.7704 6.45948 6.45959C6.78381 6.41904 7.12165 6.40552 7.473 6.40552H16.1217C20.4325 6.40552 22.5946 8.5677 22.5946 12.8785Z" stroke="white" stroke-width="2" stroke-miterlimit="10" stroke-linecap="round" stroke-linejoin="round"/>
<path d="M28.0005 7.473V12.8784C28.0005 16.8514 26.1762 18.9865 22.541 19.2973C22.5816 18.973 22.5951 18.6352 22.5951 18.2838V12.8784C22.5951 8.5676 20.4329 6.40542 16.1221 6.40542H7.47348C7.12212 6.40542 6.78429 6.41894 6.45996 6.45949C6.77077 2.82434 8.91943 1 12.8788 1H21.5275C25.8383 1 28.0005 3.16218 28.0005 7.473Z" stroke="white" stroke-width="2" stroke-miterlimit="10" stroke-linecap="round" stroke-linejoin="round"/>
<path d="M16.5352 16.2026H16.5478" stroke="white" stroke-width="2" stroke-linecap="round" stroke-linejoin="round"/>
<path d="M11.8057 16.2026H11.8183" stroke="white" stroke-width="2" stroke-linecap="round" stroke-linejoin="round"/>
<path d="M7.0752 16.2026H7.08786" stroke="white" stroke-width="2" stroke-linecap="round" stroke-linejoin="round"/>
</svg>
